<?xml version="1.0" encoding="UTF-8"?>
<svg id="b" data-name="Layer 2" xmlns="http://www.w3.org/2000/svg" xmlns:xlink="http://www.w3.org/1999/xlink" viewBox="0 0 1242.72 316">
  <defs>
    <style>
      .x {
        fill: url(#k);
      }

      .y {
        fill: url(#j);
      }

      .z {
        fill: url(#i);
      }

      .aa {
        fill: url(#h);
      }

      .ab {
        fill: url(#p);
      }

      .ac {
        fill: url(#m);
      }

      .ad {
        fill: url(#n);
      }

      .ae {
        fill: url(#l);
      }

      .af {
        fill: url(#g);
      }

      .ag {
        fill: url(#f);
      }

      .ah {
        fill: url(#e);
      }

      .ai {
        fill: url(#d);
      }

      .aj {
        fill: url(#q);
      }

      .ak {
        fill: url(#o);
      }

      .al {
        fill: url(#r);
      }

      .am {
        fill: url(#s);
      }

      .an {
        fill: url(#u);
      }

      .ao {
        fill: url(#w);
      }

      .ap {
        fill: url(#v);
      }

      .aq {
        fill: url(#t);
      }
    </style>
    <linearGradient id="d" x1="379.59" y1="242.16" x2="496.37" y2="242.16" gradientUnits="userSpaceOnUse">
      <stop offset="0" stop-color="#f2631c"/>
      <stop offset="1" stop-color="#f4a819"/>
    </linearGradient>
    <linearGradient id="e" x1="509.41" y1="243.25" x2="624.62" y2="243.25" xlink:href="#d"/>
    <linearGradient id="f" x1="646.36" y1="242.16" x2="745.55" y2="242.16" xlink:href="#d"/>
    <linearGradient id="g" x1="735.28" y1="242.16" x2="856.41" y2="242.16" xlink:href="#d"/>
    <linearGradient id="h" x1="871.82" y1="243.25" x2="987.02" y2="243.25" xlink:href="#d"/>
    <linearGradient id="i" x1="1008.76" y1="242.16" x2="1121.19" y2="242.16" xlink:href="#d"/>
    <linearGradient id="j" x1="1137" y1="242.16" x2="1242.72" y2="242.16" xlink:href="#d"/>
    <linearGradient id="k" x1="707.41" y1="73.83" x2="839.8" y2="73.83" gradientUnits="userSpaceOnUse">
      <stop offset="0" stop-color="#025dbf"/>
      <stop offset="1" stop-color="#0090d5"/>
    </linearGradient>
    <linearGradient id="l" x1="578.18" x2="699.31" xlink:href="#k"/>
    <linearGradient id="m" x1="511.39" x2="560.79" xlink:href="#k"/>
    <linearGradient id="n" x1="379.59" x2="496.37" xlink:href="#k"/>
    <linearGradient id="o" x1="248.79" y1="136.77" x2="289.6" y2="105.72" xlink:href="#d"/>
    <linearGradient id="p" x1="161.12" y1="-5.99" x2="225.89" y2="119.11" xlink:href="#d"/>
    <linearGradient id="q" x1="224.88" y1="33.61" x2="292.09" y2="33.61" gradientUnits="userSpaceOnUse">
      <stop offset="0" stop-color="#f4a819"/>
      <stop offset="1" stop-color="#f2631c"/>
    </linearGradient>
    <linearGradient id="r" x1="-2307.81" y1="-1225.17" x2="-2266.99" y2="-1256.22" gradientTransform="translate(-2051.76 1608.39) rotate(120)" xlink:href="#k"/>
    <linearGradient id="s" x1="-2395.48" y1="-1367.93" x2="-2330.71" y2="-1242.83" gradientTransform="translate(-2051.76 1608.39) rotate(120)" xlink:href="#k"/>
    <linearGradient id="t" x1="-2331.72" y1="-1328.33" x2="-2264.51" y2="-1328.33" gradientTransform="translate(-2293.73 1048.52) rotate(133.2)" xlink:href="#k"/>
    <linearGradient id="u" x1="-2216.53" y1="1902.06" x2="-2175.71" y2="1871.01" gradientTransform="translate(-2639.19 -871.29) rotate(-120)" gradientUnits="userSpaceOnUse">
      <stop offset="0" stop-color="#c40661"/>
      <stop offset="1" stop-color="#e50a6d"/>
    </linearGradient>
    <linearGradient id="v" x1="-2314.16" y1="1766.87" x2="-2249.38" y2="1891.98" xlink:href="#u"/>
    <linearGradient id="w" x1="-2250.39" y1="1806.47" x2="-2183.18" y2="1806.47" gradientTransform="translate(-1608.67 -2195.73) rotate(-85.87)" xlink:href="#u"/>
  </defs>
  <g id="c" data-name="facebook">
    <g>
      <g>
        <path class="ai" d="M379.59,242.36c0-42.68,29.64-71.73,73.11-71.73,15.61,0,31.42,5.14,43.67,14.43l-25.89,43.08c-4.94-4.15-11.07-6.52-17.59-6.52-12.65,0-21.74,8.69-21.74,20.35,0,12.45,8.3,20.75,21.54,20.75,7.51,0,13.83-2.37,19.56-7.11l24.11,43.47c-11.07,8.89-27.27,14.62-45.65,14.62-41.89,0-71.14-28.45-71.14-71.33Z"/>
        <path class="ah" d="M509.41,245.52v-72.52h50.19v90.11h14.82v-90.11h50.19v72.52c0,23.51,0,67.97-57.5,67.97s-57.7-44.46-57.7-67.97Z"/>
        <path class="ag" d="M646.36,173h49.4v89.71h49.79v48.61h-99.2v-138.32Z"/>
        <path class="af" d="M735.28,173h121.13v48.61h-34.18v89.71h-49.4v-89.71h-37.54v-48.61Z"/>
        <path class="aa" d="M871.82,245.52v-72.52h50.19v90.11h14.82v-90.11h50.19v72.52c0,23.51,0,67.97-57.5,67.97s-57.7-44.46-57.7-67.97Z"/>
        <path class="z" d="M1008.76,173h46.63c25.09,0,63.43,0,63.43,41.3,0,21.34-10.28,35.17-33,41.1l35.37,55.92h-112.43v-138.32Z"/>
        <path class="y" d="M1137,173h105.72v48.61h-57.11v15.61h46.44v9.09h-46.44v16.4h57.11v48.61h-105.72v-138.32Z"/>
      </g>
      <g>
        <path class="x" d="M750.69,89.64l-43.27-84.97h132.39l-39.72,78.05v60.27h-49.4v-53.35Z"/>
        <path class="ae" d="M578.18,4.67h121.13v48.61h-34.18v89.71h-49.4V53.28h-37.54V4.67Z"/>
        <path class="ac" d="M511.39,4.67h49.4v138.32h-49.4V4.67Z"/>
        <path class="ad" d="M379.59,74.03c0-42.68,29.64-71.73,73.11-71.73,15.61,0,31.42,5.14,43.67,14.42l-25.89,43.08c-4.94-4.15-11.07-6.52-17.59-6.52-12.65,0-21.74,8.69-21.74,20.35,0,12.45,8.3,20.75,21.54,20.75,7.51,0,13.83-2.37,19.56-7.11l24.11,43.47c-11.07,8.89-27.27,14.62-45.65,14.62-41.89,0-71.14-28.45-71.14-71.33Z"/>
      </g>
    </g>
    <g>
      <g>
        <path class="ak" d="M215.56,85.18h55.45c26.62,0,69.65,14.2,69.65,58.56h-109.58l-15.53-58.56Z"/>
        <path class="ab" d="M120.18,8.43l51.9,109.93c7.31,15.49,22.91,25.37,40.04,25.37h79.96c-43.59,0-78.91-85.78-90.34-108.55C185.29,2.4,148.13-7.54,120.18,8.43Z"/>
        <circle class="aj" cx="258.48" cy="33.61" r="33.61"/>
      </g>
      <g>
        <path class="al" d="M224.43,219.43s-14.42,24.97-27.73,48.02c-13.31,23.05-47.12,53.22-85.54,31.04l54.79-94.9,58.48,15.83Z"/>
        <path class="am" d="M338.59,175.2l-121.16-10.02c-17.07-1.41-33.43,7.15-42,21.99l-39.98,69.25c21.79-37.75,113.74-25.44,139.17-23.96,36.63,2.13,63.82-25.07,63.96-57.26Z"/>
        <circle class="aq" cx="247.64" cy="282.39" r="33.61" transform="translate(-57.92 63.98) rotate(-13.19)"/>
      </g>
      <g>
        <path class="an" d="M99.73,156.6s-14.42-24.97-27.73-48.02c-13.31-23.05-22.53-67.42,15.89-89.6l54.79,94.9-42.95,42.73Z"/>
        <path class="ap" d="M80.96,277.58l69.25-99.92c9.76-14.08,10.52-32.53,1.95-47.36l-39.98-69.25c21.79,37.75-34.84,111.23-48.84,132.51-20.16,30.66-10.2,67.8,17.61,84.02Z"/>
        <circle class="ao" cx="33.61" cy="145.22" r="33.61" transform="translate(-75.68 43.86) rotate(-34.13)"/>
      </g>
    </g>
  </g>
</svg>